<svg xmlns="http://www.w3.org/2000/svg" viewBox="0 0 760 220" fill="none">
  <defs>
    <linearGradient id="wBg" x1="0" x2="1" y1="0" y2="1">
      <stop offset="0" stop-color="#0ea5e9"/>
      <stop offset=".55" stop-color="#075985"/>
      <stop offset="1" stop-color="#0c4a6e"/>
    </linearGradient>
    <linearGradient id="wGold" x1="0" x2="0" y1="0" y2="1">
      <stop offset="0" stop-color="#fde68a"/>
      <stop offset=".5"  stop-color="#fbbf24"/>
      <stop offset="1"   stop-color="#d97706"/>
    </linearGradient>
  </defs>

  <!-- Icon tile -->
  <rect x="20" y="20" width="180" height="180" rx="40" fill="url(#wBg)"/>
  <circle cx="110" cy="75" r="17" fill="url(#wGold)"/>
  <g stroke="url(#wGold)" stroke-width="3.2" stroke-linecap="round">
    <line x1="110" y1="38" x2="110" y2="48"/>
    <line x1="73"  y1="75" x2="83"  y2="75"/>
    <line x1="137" y1="75" x2="147" y2="75"/>
  </g>
  <path d="M45 158 V110 A65 65 0 0 1 175 110 V158"
        stroke="url(#wGold)" stroke-width="9" fill="none" stroke-linecap="round"/>
  <path d="M35 170 Q57 162 79 170 T123 170 T167 170 T188 166"
        stroke="#7dd3fc" stroke-width="5" fill="none" stroke-linecap="round"/>
  <path d="M35 184 Q57 176 79 184 T123 184 T167 184 T188 180"
        stroke="#38bdf8" stroke-width="4" fill="none" stroke-linecap="round" opacity=".75"/>

  <!-- Wordmark -->
  <text x="740" y="122" text-anchor="end" font-family="Cairo, Tajawal, 'Segoe UI', sans-serif"
        font-weight="800" font-size="96" fill="#0c4a6e" direction="rtl">قناوي</text>
  <text x="740" y="172" text-anchor="end" font-family="Cairo, Tajawal, 'Segoe UI', sans-serif"
        font-weight="600" font-size="28" fill="#0369a1" direction="rtl">دليل قنا · عروس الصعيد</text>
</svg>
